Coordinates
version=1
nRows=14
nColumns=46
inDegrees=yes

Units are S.I. units (second, meters, Newtons, ...)
Angles are in degrees.

endheader
time	pelvis_tilt	pelvis_list	pelvis_rotation	pelvis_tx	pelvis_ty	pelvis_tz	bb_angle	bb_tx	bb_ty	bb_tz	hip_flexion_r	hip_adduction_r	hip_rotation_r	knee_angle_r	knee_angle_r_beta	ankle_angle_r	subtalar_angle_r	mtp_angle_r	crank_angle_r	hip_flexion_l	hip_adduction_l	hip_rotation_l	knee_angle_l	knee_angle_l_beta	ankle_angle_l	subtalar_angle_l	mtp_angle_l	crank_angle_l	lumbar_extension	lumbar_bending	lumbar_rotation	arm_flex_r	arm_add_r	arm_rot_r	elbow_flex_r	pro_sup_r	wrist_flex_r	wrist_dev_r	arm_flex_l	arm_add_l	arm_rot_l	elbow_flex_l	pro_sup_l	wrist_flex_l	wrist_dev_l
      2.50000000	    -18.07027207	    -11.98596036	     -3.27439339	      0.07798185	      1.11190592	     -0.29299981	      0.00000000	      0.50000000	      0.00000000	      0.25000000	     83.19454783	      2.59597644	     -6.48286260	     83.76174146	      1.46191818	     16.27425470	    -15.33398435	      0.00000000	      0.00000000	     53.42534790	    -10.74492678	      9.40825788	     58.52401420	      1.02143674	    -14.46979587	    -18.77385728	      0.00000000	      0.00000000	    -61.18536996	      0.69526627	     24.85436615	    -53.20285531	   -119.82158646	    -83.73814938	     74.05652060	     23.28726990	      0.00000000	      0.00000000	     89.86987711	     13.85006034	     23.55755912	     45.70249874	     17.27512247	      0.00000000	      0.00000000
      2.50500000	    -17.89231249	    -11.70804947	     -2.82625863	      0.07797337	      1.11144257	     -0.29248020	      0.00000000	      0.50000000	      0.00000000	      0.25000000	     82.16355320	      2.54328098	     -6.11093980	     81.83565562	      1.42830164	     16.13867267	    -15.58944814	      0.00000000	      0.00000000	     53.99372671	    -10.25591651	      9.43254692	     60.54670386	      1.05673933	    -13.76086829	    -19.02552242	      0.00000000	      0.00000000	    -61.28478000	      0.70816316	     24.29783405	    -53.20017824	   -119.82094802	    -83.70048182	     74.05960154	     23.26452355	      0.00000000	      0.00000000	     89.87190395	     13.86787140	     23.57204837	     45.70857295	     17.25967604	      0.00000000	      0.00000000
      2.51000000	    -17.75965198	    -11.91119647	     -2.37889808	      0.07795160	      1.11061887	     -0.29166122	      0.00000000	      0.50000000	      0.00000000	      0.25000000	     81.14665089	      2.67057342	     -6.20404214	     79.81218959	      1.39298549	     15.26684392	    -16.69669305	      0.00000000	      0.00000000	     54.88032927	    -10.28520133	      9.65124192	     62.86578458	      1.09721493	    -12.16273374	    -18.17624706	      0.00000000	      0.00000000	    -61.35595500	      1.11155117	     24.29238197	    -53.23307223	   -119.81983701	    -83.64935636	     74.20436567	     23.16980922	      0.00000000	      0.00000000	     89.87101260	     13.72543934	     23.61447469	     45.86416348	     17.20975776	      0.00000000	      0.00000000
      2.51500000	    -17.51449557	    -11.67892655	     -1.86627053	      0.07808595	      1.10994262	     -0.29103724	      0.00000000	      0.50000000	      0.00000000	      0.25000000	     80.07329448	      2.55548321	     -5.85257341	     77.96042622	      1.36066612	     14.72816537	    -16.93170903	      0.00000000	      0.00000000	     55.50057756	     -9.89636722	      9.52449453	     64.98732193	      1.13424274	    -11.22295206	    -18.42568339	      0.00000000	      0.00000000	    -61.47823013	      1.26458509	     23.82521485	    -53.35373890	   -119.82027793	    -83.58349032	     74.20807044	     23.13058639	      0.00000000	      0.00000000	     89.87153402	     13.63926685	     23.63226417	     45.87384411	     17.18278729	      0.00000000	      0.00000000
      2.52000000	    -17.36168594	    -11.60525974	     -1.31737825	      0.07813974	      1.10893854	     -0.29025356	      0.00000000	      0.50000000	      0.00000000	      0.25000000	     79.10820249	      2.44080586	     -5.66910557	     76.11759705	      1.32850269	     13.70899205	    -17.63123233	      0.00000000	      0.00000000	     56.39470810	     -9.63795619	      9.65567372	     67.29414282	      1.17450436	     -9.98188520	    -17.66664169	      0.00000000	      0.00000000	    -61.52016608	      1.55576110	     23.50819359	    -53.48011771	   -119.81947584	    -83.61421708	     74.30163358	     23.05268502	      0.00000000	      0.00000000	     89.87236323	     13.55507046	     23.75405085	     45.95708693	     17.13629094	      0.00000000	      0.00000000
      2.52500000	    -17.13156618	    -11.19323485	     -0.78802818	      0.07832869	      1.10812713	     -0.28955855	      0.00000000	      0.50000000	      0.00000000	      0.25000000	     78.06328134	      2.18158755	     -5.18690992	     74.34679253	      1.29759632	     13.13550016	    -17.53577096	      0.00000000	      0.00000000	     57.07813362	     -9.13903012	      9.42285059	     69.42980019	      1.21177861	     -9.38534519	    -17.87909652	      0.00000000	      0.00000000	    -61.63308223	      1.58062991	     22.86994634	    -53.51924330	   -119.81795975	    -83.60460136	     74.29666616	     23.03523522	      0.00000000	      0.00000000	     89.87351680	     13.60254980	     23.80200712	     45.93691115	     17.12032320	      0.00000000	      0.00000000
      2.53000000	    -16.95568981	    -11.07704698	     -0.25159885	      0.07846986	      1.10698931	     -0.28867511	      0.00000000	      0.50000000	      0.00000000	      0.25000000	     77.02265628	      2.02928544	     -5.03260291	     72.51554812	      1.26563507	     11.85291679	    -18.33956286	      0.00000000	      0.00000000	     58.03065176	     -8.93822337	      9.38897546	     71.77839143	      1.25276926	     -7.95473147	    -16.98534839	      0.00000000	      0.00000000	    -61.65237252	      1.89947519	     22.57208408	    -53.78642857	   -119.81813688	    -83.69367362	     74.42353050	     22.93629978	      0.00000000	      0.00000000	     89.87341036	     13.40080106	     23.99856253	     45.95806748	     17.04652797	      0.00000000	      0.00000000
      2.53500000	    -16.70192049	    -10.69386977	      0.34953450	      0.07879689	      1.10605192	     -0.28795886	      0.00000000	      0.50000000	      0.00000000	      0.25000000	     75.93574269	      1.64362940	     -4.67449807	     70.83723793	      1.23634303	     10.95759992	    -18.29733291	      0.00000000	      0.00000000	     58.80429135	     -8.45856483	      9.17014503	     73.96283901	      1.29089506	     -7.27528508	    -17.01758876	      0.00000000	      0.00000000	    -61.74982724	      2.06071801	     21.97814803	    -53.94138217	   -119.81790628	    -83.66780124	     74.44117700	     22.90686772	      0.00000000	      0.00000000	     89.87394836	     13.32618480	     24.06102050	     45.91353168	     17.01554712	      0.00000000	      0.00000000
      2.54000000	    -16.50314738	    -10.28271802	      0.87724570	      0.07908136	      1.10503883	     -0.28704403	      0.00000000	      0.50000000	      0.00000000	      0.25000000	     74.89958364	      1.30835264	     -4.21590937	     69.21684908	      1.20806191	     10.02090634	    -18.06490696	      0.00000000	      0.00000000	     59.64718641	     -8.01145918	      8.94967824	     76.13043215	      1.32872670	     -6.71416672	    -17.01091309	      0.00000000	      0.00000000	    -61.81945710	      2.13043136	     21.35177790	    -54.02372351	   -119.81792718	    -83.66262170	     74.46831019	     22.89531883	      0.00000000	      0.00000000	     89.87591786	     13.31518415	     24.12410220	     45.88585859	     16.99846746	      0.00000000	      0.00000000
      2.54500000	    -16.37348152	    -10.09224410	      1.41527222	      0.07940183	      1.10375744	     -0.28588125	      0.00000000	      0.50000000	      0.00000000	      0.25000000	     73.89544589	      1.05780945	     -4.08808497	     67.49930586	      1.17808513	      8.48383200	    -18.78919204	      0.00000000	      0.00000000	     60.71480970	     -7.77236563	      8.93384013	     78.42973198	      1.36885705	     -5.54251445	    -16.01084151	      0.00000000	      0.00000000	    -61.77916187	      2.39401413	     20.95474997	    -54.35310754	   -119.81695586	    -83.82823726	     74.69517341	     22.84146144	      0.00000000	      0.00000000	     89.87483854	     13.05752197	     24.41317544	     45.88098032	     16.94355757	      0.00000000	      0.00000000
      2.55000000	    -16.14678277	     -9.56386185	      1.92095691	      0.07993572	      1.10280273	     -0.28489591	      0.00000000	      0.50000000	      0.00000000	      0.25000000	     72.79490741	      0.59579571	     -3.71600341	     65.90893430	      1.15032791	      7.63143856	    -18.41593536	      0.00000000	      0.00000000	     61.55731777	     -7.28291430	      8.60421080	     80.57338821	      1.40627091	     -5.20952722	    -16.08569179	      0.00000000	      0.00000000	    -61.87280068	      2.37403081	     20.28106267	    -54.43532560	   -119.81528284	    -83.81525121	     74.71672916	     22.83410640	      0.00000000	      0.00000000	     89.87518253	     13.09384101	     24.47233643	     45.84977090	     16.93000808	      0.00000000	      0.00000000
      2.55500000	    -15.91803553	     -9.22682566	      2.49296390	      0.08046693	      1.10184332	     -0.28390245	      0.00000000	      0.50000000	      0.00000000	      0.25000000	     71.65780131	      0.14987674	     -3.65928782	     64.24398494	      1.12126906	      5.93767787	    -18.92886000	      0.00000000	      0.00000000	     62.49482036	     -6.86362158	      8.56466183	     82.76861753	      1.44458489	     -4.24998192	    -15.28317132	      0.00000000	      0.00000000	    -61.95769743	      2.55145245	     19.63291085	    -54.82599741	   -119.81665292	    -83.92285825	     74.93153266	     22.81073490	      0.00000000	      0.00000000	     89.87527274	     12.76875693	     24.61499786	     45.86172025	     16.89863889	      0.00000000	      0.00000000
      2.56000000	    -15.69020712	     -8.70909221	      2.91958476	      0.08126128	      1.10107516	     -0.28275602	      0.00000000	      0.50000000	      0.00000000	      0.25000000	     70.50803734	     -0.28954208	     -3.42648702	     62.64738137	      1.09340307	      4.74446391	    -18.56589541	      0.00000000	      0.00000000	     63.40718358	     -6.52246503	      8.20289459	     84.91168599	      1.48198849	     -3.88690060	    -15.06112576	      0.00000000	      0.00000000	    -62.07229260	      2.48578113	     18.99960008	    -55.00257714	   -119.81592904	    -83.92789486	     74.97989938	     22.80025408	      0.00000000	      0.00000000	     89.87530318	     12.68529213	     24.67120733	     45.82159986	     16.88045601	      0.00000000	      0.00000000
      2.56500000	    -15.47428066	     -8.33797074	      3.41723043	      0.08193817	      1.10026943	     -0.28161150	      0.00000000	      0.50000000	      0.00000000	      0.25000000	     69.31542695	     -0.74126159	     -3.56803266	     60.94629921	      1.06371359	      3.21489726	    -19.28107248	      0.00000000	      0.00000000	     64.37758792	     -6.14561148	      8.19329683	     87.04864600	      1.51928548	     -3.11127627	    -14.10419362	      0.00000000	      0.00000000	    -62.17515452	      2.56526713	     18.38098293	    -55.35090813	   -119.81609640	    -84.13878147	     75.21514329	     22.78028592	      0.00000000	      0.00000000	     89.87517625	     12.48342393	     24.85447555	     45.85061132	     16.86068357	      0.00000000	      0.00000000
